<svg xmlns="http://www.w3.org/2000/svg" width="40.604" height="33.585" viewBox="0 0 40.604 33.585">
  <g id="Icon_feather-camera" data-name="Icon feather-camera" transform="translate(-0.5 -3.5)">
    <path id="Path_37" data-name="Path 37" d="M40.1,32.575a3.509,3.509,0,0,1-3.509,3.509H5.009A3.509,3.509,0,0,1,1.5,32.575v-19.3A3.509,3.509,0,0,1,5.009,9.764h7.019L15.538,4.5H26.066l3.509,5.264h7.019A3.509,3.509,0,0,1,40.1,13.274Z" transform="translate(0 0)" fill="none" stroke="#0f0f0f" stroke-linecap="round" stroke-linejoin="round" stroke-width="2"/>
    <path id="Path_38" data-name="Path 38" d="M26.038,20.519A7.019,7.019,0,1,1,19.019,13.5,7.019,7.019,0,0,1,26.038,20.519Z" transform="translate(1.783 1.528)" fill="none" stroke="#0f0f0f" stroke-linecap="round" stroke-linejoin="round" stroke-width="2"/>
  </g>
</svg>
