<svg id="Group_158" data-name="Group 158" xmlns="http://www.w3.org/2000/svg" xmlns:xlink="http://www.w3.org/1999/xlink" width="129.3" height="129.3" viewBox="0 0 129.3 129.3">
  <defs>
    <clipPath id="clip-path">
      <rect id="Rectangle_353" data-name="Rectangle 353" width="129.3" height="129.3" fill="none" stroke="#707070" stroke-width="5"/>
    </clipPath>
  </defs>
  <g id="Group_157" data-name="Group 157" clip-path="url(#clip-path)">
    <path id="Path_98" data-name="Path 98" d="M46.535,70.242H20.012A13.258,13.258,0,0,1,6.75,56.981V20.512A13.258,13.258,0,0,1,20.012,7.25H73.058A13.258,13.258,0,0,1,86.319,20.512V56.981A13.258,13.258,0,0,1,73.058,70.242H66.427V83.5Z" transform="translate(38.008 40.823)" fill="none" stroke="#323232" stroke-linecap="round" stroke-linejoin="round" stroke-width="5"/>
    <path id="Path_99" data-name="Path 99" d="M97.612,43.85V16.9A16.144,16.144,0,0,0,81.466.75H16.889A16.139,16.139,0,0,0,.75,16.9V61.289A16.139,16.139,0,0,0,16.889,77.435h8.07V93.581L40.535,83.2" transform="translate(4.223 4.223)" fill="none" stroke="#323232" stroke-linecap="round" stroke-linejoin="round" stroke-width="5"/>
  </g>
</svg>
