<svg id="Group_162" data-name="Group 162" xmlns="http://www.w3.org/2000/svg" xmlns:xlink="http://www.w3.org/1999/xlink" width="121.759" height="125.6" viewBox="0 0 121.759 125.6">
  <defs>
    <clipPath id="clip-path">
      <rect id="Rectangle_356" data-name="Rectangle 356" width="121.759" height="125.6" fill="none" stroke="#707070" stroke-width="5"/>
    </clipPath>
  </defs>
  <g id="Group_161" data-name="Group 161" transform="translate(0 0)" clip-path="url(#clip-path)">
    <rect id="Rectangle_355" data-name="Rectangle 355" width="24.507" height="49.015" rx="1" transform="translate(4.595 71.99)" fill="none" stroke="#323232" stroke-linecap="round" stroke-linejoin="round" stroke-width="5"/>
    <path id="Path_101" data-name="Path 101" d="M41.511,28.643H55.8a12.233,12.233,0,0,0,7.352-2.451l14.8-11.1A9.281,9.281,0,0,1,90.091,29.078l-12.7,12.7a24.508,24.508,0,0,1-12.523,6.7l-17.952,3.59a24.592,24.592,0,0,1-10.753-.257l-16.23-4.062a24.624,24.624,0,0,0-5.943-.729H4.75" transform="translate(24.353 67.855)" fill="none" stroke="#323232" stroke-linecap="round" stroke-linejoin="round" stroke-width="5"/>
    <path id="Path_102" data-name="Path 102" d="M41.511,36.257h9.1a9.28,9.28,0,0,0,9.282-9.282v-1.85a9.287,9.287,0,0,0-7.027-9.006L38.821,12.608a28.78,28.78,0,0,0-22.939,3.976L4.75,24" transform="translate(24.353 60.24)" fill="none" stroke="#323232" stroke-linecap="round" stroke-linejoin="round" stroke-width="5"/>
    <circle id="Ellipse_40" data-name="Ellipse 40" cx="17.388" cy="17.388" r="17.388" transform="translate(61.722 18.835)" fill="none" stroke="#323232" stroke-linecap="round" stroke-linejoin="round" stroke-width="5"/>
    <path id="Path_103" data-name="Path 103" d="M41.25,15.3A17.361,17.361,0,1,0,27.385,35.214" transform="translate(34.606 3.844)" fill="none" stroke="#323232" stroke-linecap="round" stroke-linejoin="round" stroke-width="5"/>
  </g>
</svg>
