<svg xmlns="http://www.w3.org/2000/svg" width="14.167" height="14.164" viewBox="0 0 14.167 14.164">
  <path id="Icon_awesome-instagram" data-name="Icon awesome-instagram" d="M7.08,5.688A3.631,3.631,0,1,0,10.711,9.32,3.626,3.626,0,0,0,7.08,5.688Zm0,5.992A2.361,2.361,0,1,1,9.441,9.32,2.365,2.365,0,0,1,7.08,11.68ZM11.707,5.54a.847.847,0,1,1-.847-.847A.845.845,0,0,1,11.707,5.54Zm2.405.86a4.192,4.192,0,0,0-1.144-2.968A4.219,4.219,0,0,0,10,2.287c-1.169-.066-4.674-.066-5.844,0A4.213,4.213,0,0,0,1.189,3.428,4.205,4.205,0,0,0,.045,6.4c-.066,1.169-.066,4.674,0,5.844a4.192,4.192,0,0,0,1.144,2.968,4.225,4.225,0,0,0,2.968,1.144c1.169.066,4.674.066,5.844,0a4.192,4.192,0,0,0,2.968-1.144,4.219,4.219,0,0,0,1.144-2.968c.066-1.169.066-4.671,0-5.841Zm-1.511,7.1a2.39,2.39,0,0,1-1.346,1.346,15.61,15.61,0,0,1-4.175.284A15.731,15.731,0,0,1,2.9,14.841a2.39,2.39,0,0,1-1.346-1.346A15.61,15.61,0,0,1,1.274,9.32a15.731,15.731,0,0,1,.284-4.175A2.39,2.39,0,0,1,2.9,3.8,15.61,15.61,0,0,1,7.08,3.514a15.731,15.731,0,0,1,4.175.284A2.39,2.39,0,0,1,12.6,5.145a15.61,15.61,0,0,1,.284,4.175A15.6,15.6,0,0,1,12.6,13.495Z" transform="translate(0.005 -2.238)"/>
</svg>
