<svg xmlns="http://www.w3.org/2000/svg" width="12.136" height="15.774" viewBox="0 0 12.136 15.774">
  <path id="Icon_awesome-pinterest-p" data-name="Icon awesome-pinterest-p" d="M6.447.457C3.2.457,0,2.619,0,6.117,0,8.342,1.252,9.607,2.01,9.607c.313,0,.493-.872.493-1.119,0-.294-.749-.92-.749-2.143A4.271,4.271,0,0,1,6.191,2c2.152,0,3.745,1.223,3.745,3.47,0,1.678-.673,4.826-2.854,4.826a1.4,1.4,0,0,1-1.46-1.384c0-1.195.834-2.351.834-3.584,0-2.092-2.968-1.713-2.968.815a3.713,3.713,0,0,0,.3,1.6c-.436,1.877-1.327,4.674-1.327,6.609,0,.6.085,1.185.142,1.783.107.12.054.107.218.047,1.593-2.181,1.536-2.607,2.257-5.461a2.563,2.563,0,0,0,2.19,1.138c3.356,0,4.864-3.271,4.864-6.22C12.136,2.505,9.425.457,6.447.457Z" transform="translate(0 -0.457)"/>
</svg>
