<svg xmlns="http://www.w3.org/2000/svg" width="16.182" height="13.143" viewBox="0 0 16.182 13.143">
  <path id="Icon_awesome-twitter" data-name="Icon awesome-twitter" d="M14.518,6.656c.01.144.01.288.01.431a9.371,9.371,0,0,1-9.436,9.436A9.372,9.372,0,0,1,0,15.034a6.861,6.861,0,0,0,.8.041,6.642,6.642,0,0,0,4.117-1.417,3.322,3.322,0,0,1-3.1-2.3,4.182,4.182,0,0,0,.626.051,3.508,3.508,0,0,0,.873-.113A3.317,3.317,0,0,1,.657,8.042V8a3.34,3.34,0,0,0,1.5.421A3.321,3.321,0,0,1,1.129,3.987a9.427,9.427,0,0,0,6.838,3.47,3.744,3.744,0,0,1-.082-.76,3.32,3.32,0,0,1,5.74-2.269,6.529,6.529,0,0,0,2.1-.8,3.307,3.307,0,0,1-1.458,1.828,6.648,6.648,0,0,0,1.91-.513A7.129,7.129,0,0,1,14.518,6.656Z" transform="translate(0 -3.381)"/>
</svg>
