<svg xmlns="http://www.w3.org/2000/svg" width="14.588" height="9.729" viewBox="0 0 14.588 9.729">
  <path id="Icon_ionic-ios-arrow-round-forward" data-name="Icon ionic-ios-arrow-round-forward" d="M17.178,11.438a.662.662,0,0,0-.005.932l3.081,3.086H8.529a.659.659,0,0,0,0,1.317h11.72l-3.081,3.086a.667.667,0,0,0,.005.932.656.656,0,0,0,.927-.005l4.175-4.206h0a.74.74,0,0,0,.137-.208.629.629,0,0,0,.051-.253.66.66,0,0,0-.187-.461L18.1,11.453A.645.645,0,0,0,17.178,11.438Z" transform="translate(-7.875 -11.252)"/>
</svg>
