<svg xmlns="http://www.w3.org/2000/svg" xmlns:xlink="http://www.w3.org/1999/xlink" width="251.4" height="56.257" viewBox="0 0 251.4 56.257">
  <defs>
    <clipPath id="clip-path">
      <rect id="Rectangle_372" data-name="Rectangle 372" width="251.4" height="56.257" transform="translate(0 0)" fill="none"/>
    </clipPath>
  </defs>
  <g id="Group_176" data-name="Group 176" transform="translate(0 0)">
    <g id="Group_175" data-name="Group 175" clip-path="url(#clip-path)">
      <path id="Path_104" data-name="Path 104" d="M74.1,18.109h8.546c4.989,0,8.007,2.959,8.007,7.232V25.4c0,4.842-3.764,7.352-8.455,7.352H78.7v6.274H74.1Zm8.247,10.548c2.3,0,3.646-1.374,3.646-3.166v-.06c0-2.061-1.436-3.166-3.736-3.166H78.7v6.393Z"/>
      <rect id="Rectangle_371" data-name="Rectangle 371" width="4.602" height="20.917" transform="translate(97.257 18.107)"/>
      <path id="Path_105" data-name="Path 105" d="M115.781,28.387l-6.992-10.28h5.378l4.364,6.784,4.451-6.784h5.229l-6.991,10.22,7.289,10.7h-5.377l-4.692-7.17-4.72,7.17h-5.229Z"/>
      <path id="Path_106" data-name="Path 106" d="M132.513,28.626v-.059a10.632,10.632,0,0,1,10.445-10.816c.154,0,.308,0,.462,0a10.791,10.791,0,0,1,8.247,3.227l-2.929,3.373a7.714,7.714,0,0,0-5.352-2.36c-3.527,0-6.065,2.928-6.065,6.514v.06c0,3.586,2.479,6.573,6.065,6.573,2.39,0,3.855-.956,5.5-2.45l2.93,2.963a10.688,10.688,0,0,1-8.575,3.734A10.558,10.558,0,0,1,132.512,29c0-.125,0-.251,0-.376"/>
      <path id="Path_107" data-name="Path 107" d="M156.954,28.626v-.059a11.121,11.121,0,0,1,22.231-.06v.06a11.121,11.121,0,0,1-22.231.059m17.421,0v-.059A6.355,6.355,0,0,0,168.243,22c-.067,0-.135,0-.2,0a6.254,6.254,0,0,0-6.28,6.23c0,.094,0,.189.005.284v.06a6.352,6.352,0,0,0,6.129,6.569c.068,0,.136,0,.2,0a6.254,6.254,0,0,0,6.282-6.228c0-.1,0-.191,0-.286"/>
      <path id="Path_108" data-name="Path 108" d="M183.126,18.107h5.081l5.467,14.735,5.468-14.731H204.1l-8.456,21.067h-4.065Z"/>
      <path id="Path_109" data-name="Path 109" d="M210.315,18.107h15.776v4.1h-11.2v4.24h9.86v4.092h-9.86v4.393h11.356V39.02H210.315Z"/>
      <path id="Path_110" data-name="Path 110" d="M233.322,18.109h9.562a8.335,8.335,0,0,1,6.1,2.122,6.561,6.561,0,0,1,1.794,4.781v.06a6.5,6.5,0,0,1-4.482,6.484l5.109,7.47h-5.379l-4.48-6.693h-3.617v6.693h-4.6Zm9.262,10.16c2.242,0,3.527-1.2,3.527-2.958v-.06c0-1.973-1.376-2.987-3.615-2.987h-4.572v6Z"/>
      <path id="Path_111" data-name="Path 111" d="M49.686,49.654l-29.659-.149V43.084H29a13.971,13.971,0,0,0,0-27.941H13.518v15.12h6.509V21.655H29A7.463,7.463,0,1,1,29,36.58H6.508V6.512H41.027V0H0V43.088H13.518V56.257l42.677-.062V16.627H49.686Z"/>
      <path id="Path_112" data-name="Path 112" d="M45.011,0V6.51h4.67v3.7h6.513V0Z"/>
    </g>
  </g>
</svg>
