<?xml version="1.0" standalone="no"?>
<!DOCTYPE svg PUBLIC "-//W3C//DTD SVG 20010904//EN"
 "http://www.w3.org/TR/2001/REC-SVG-20010904/DTD/svg10.dtd">
<svg version="1.0" xmlns="http://www.w3.org/2000/svg"
 width="700.000000pt" height="700.000000pt" viewBox="0 0 700.000000 700.000000"
 preserveAspectRatio="xMidYMid meet">
<metadata>
Created by potrace 1.14, written by Peter Selinger 2001-2017
</metadata>
<g transform="translate(0.000000,700.000000) scale(0.100000,-0.100000)"
fill="#000000" stroke="none">
<path d="M19 6993 c-1 -5 -2 -1211 -3 -2680 l-1 -2673 40 0 c22 -1 399 -1 838
-1 l797 -1 0 -31 c1 -18 2 -385 3 -817 l2 -785 2490 0 c1370 0 2560 1 2645 3
l155 3 -2 2452 c-1 1349 -2 2455 -2 2460 -1 4 -181 7 -400 7 -310 0 -400 -3
-403 -12 -2 -7 -3 -932 -3 -2055 l1 -2041 -771 4 c-1280 7 -2539 13 -2727 14
l-178 0 0 400 0 400 598 1 c328 0 624 2 657 5 131 12 372 69 462 110 17 8 35
14 40 14 17 0 210 103 288 154 140 91 313 247 390 351 17 22 35 46 42 52 29
32 183 283 183 300 0 2 12 30 26 61 65 142 108 306 133 507 9 70 7 347 -3 395
-2 14 -7 44 -10 67 -17 130 -81 332 -152 479 -217 445 -611 778 -1079 912
-228 66 -236 66 -1365 67 l-1015 0 0 -940 0 -940 400 0 400 0 5 535 5 536 605
-2 c333 0 625 -4 650 -8 240 -38 462 -173 606 -368 63 -86 135 -231 148 -300
2 -13 10 -45 16 -73 28 -118 18 -305 -24 -448 -81 -276 -308 -513 -582 -607
-147 -51 -112 -50 -1659 -50 l-1442 0 1 1868 1 1867 2138 3 c1412 1 2137 5
2138 12 0 6 1 183 1 395 0 212 -1 390 -1 395 -1 12 -5080 14 -5082 3z"/>
<path d="M5598 6993 c-2 -5 -3 -186 -3 -403 l1 -395 290 -3 289 -2 0 -218 c-1
-119 1 -223 3 -229 3 -10 93 -13 402 -13 310 0 399 3 402 13 2 6 3 291 2 632
l-1 620 -691 3 c-380 1 -692 -1 -694 -5z"/>
</g>
</svg>
